# xmcd
#
# Track frame offsets: 
#        150
#        15581
#        32084
#
# Disc length: 633 seconds
#
# Revision: 2
# Processed by: cddbd v1.5.2PL0 Copyright (c) Steve Scherf et al.
# Submitted via: ExactAudioCopyFreeDBPlugin 1.0
#
DISCID=18027703
DTITLE=Dagmar Frederic und Maxie -  Geh
DYEAR=2007
DGENRE=Schlager
TTITLE0=geh
TTITLE1=Wenn man Freunde hat
TTITLE2=Deine Augen und dein Lächeln
EXTD=YEAR: 2001
EXTT0=
EXTT1=
EXTT2=
PLAYORDER=
